<svg width="567" height="356" viewBox="0 0 567 356" fill="none" xmlns="http://www.w3.org/2000/svg">
<g clip-path="url(#clip0_153:970)">
<rect width="566.166" height="356" transform="translate(0.416992)" fill="white"/>
<rect width="300" height="51" transform="translate(134.083)" fill="#04D189"/>
<path d="M178.183 32.2C176.717 32.2 175.457 31.9067 174.403 31.32C173.363 30.72 172.563 29.88 172.003 28.8C171.443 27.7067 171.163 26.42 171.163 24.94C171.163 23.46 171.443 22.18 172.003 21.1C172.563 20.02 173.363 19.1867 174.403 18.6C175.457 18 176.717 17.7 178.183 17.7C179.13 17.7 180.023 17.8467 180.863 18.14C181.717 18.4333 182.417 18.8533 182.963 19.4L182.123 21.44C181.523 20.9333 180.91 20.5667 180.283 20.34C179.657 20.1 178.983 19.98 178.263 19.98C176.837 19.98 175.75 20.4133 175.003 21.28C174.257 22.1333 173.883 23.3533 173.883 24.94C173.883 26.5267 174.257 27.7533 175.003 28.62C175.75 29.4867 176.837 29.92 178.263 29.92C178.983 29.92 179.657 29.8067 180.283 29.58C180.91 29.34 181.523 28.9667 182.123 28.46L182.963 30.5C182.417 31.0333 181.717 31.4533 180.863 31.76C180.023 32.0533 179.13 32.2 178.183 32.2ZM184.957 32V17.9H187.457V23.64C187.791 23.1067 188.237 22.7067 188.797 22.44C189.357 22.16 189.977 22.02 190.657 22.02C192.964 22.02 194.117 23.36 194.117 26.04V32H191.617V26.16C191.617 25.4 191.471 24.8467 191.177 24.5C190.897 24.1533 190.457 23.98 189.857 23.98C189.124 23.98 188.537 24.2133 188.097 24.68C187.671 25.1333 187.457 25.74 187.457 26.5V32H184.957ZM201.117 32.2C200.103 32.2 199.223 31.9933 198.477 31.58C197.73 31.1667 197.15 30.58 196.737 29.82C196.323 29.0467 196.117 28.14 196.117 27.1C196.117 26.06 196.323 25.16 196.737 24.4C197.15 23.64 197.73 23.0533 198.477 22.64C199.223 22.2267 200.103 22.02 201.117 22.02C202.13 22.02 203.01 22.2267 203.757 22.64C204.503 23.0533 205.083 23.64 205.497 24.4C205.91 25.16 206.117 26.06 206.117 27.1C206.117 28.14 205.91 29.0467 205.497 29.82C205.083 30.58 204.503 31.1667 203.757 31.58C203.01 31.9933 202.13 32.2 201.117 32.2ZM201.117 30.3C201.863 30.3 202.463 30.0333 202.917 29.5C203.37 28.9533 203.597 28.1533 203.597 27.1C203.597 26.0333 203.37 25.24 202.917 24.72C202.463 24.1867 201.863 23.92 201.117 23.92C200.37 23.92 199.77 24.1867 199.317 24.72C198.863 25.24 198.637 26.0333 198.637 27.1C198.637 28.1533 198.863 28.9533 199.317 29.5C199.77 30.0333 200.37 30.3 201.117 30.3ZM212.64 32.2C211.627 32.2 210.747 31.9933 210 31.58C209.253 31.1667 208.673 30.58 208.26 29.82C207.847 29.0467 207.64 28.14 207.64 27.1C207.64 26.06 207.847 25.16 208.26 24.4C208.673 23.64 209.253 23.0533 210 22.64C210.747 22.2267 211.627 22.02 212.64 22.02C213.653 22.02 214.533 22.2267 215.28 22.64C216.027 23.0533 216.607 23.64 217.02 24.4C217.433 25.16 217.64 26.06 217.64 27.1C217.64 28.14 217.433 29.0467 217.02 29.82C216.607 30.58 216.027 31.1667 215.28 31.58C214.533 31.9933 213.653 32.2 212.64 32.2ZM212.64 30.3C213.387 30.3 213.987 30.0333 214.44 29.5C214.893 28.9533 215.12 28.1533 215.12 27.1C215.12 26.0333 214.893 25.24 214.44 24.72C213.987 24.1867 213.387 23.92 212.64 23.92C211.893 23.92 211.293 24.1867 210.84 24.72C210.387 25.24 210.16 26.0333 210.16 27.1C210.16 28.1533 210.387 28.9533 210.84 29.5C211.293 30.0333 211.893 30.3 212.64 30.3ZM223.284 32.2C222.457 32.2 221.684 32.1 220.964 31.9C220.244 31.7 219.644 31.4133 219.164 31.04L219.804 29.4C220.297 29.7333 220.85 29.9933 221.464 30.18C222.077 30.3533 222.69 30.44 223.304 30.44C223.944 30.44 224.417 30.3333 224.724 30.12C225.044 29.8933 225.204 29.6 225.204 29.24C225.204 28.68 224.79 28.32 223.964 28.16L221.964 27.78C220.27 27.46 219.424 26.58 219.424 25.14C219.424 24.5 219.597 23.9467 219.944 23.48C220.304 23.0133 220.797 22.6533 221.424 22.4C222.05 22.1467 222.77 22.02 223.584 22.02C224.277 22.02 224.944 22.12 225.584 22.32C226.224 22.5067 226.77 22.7933 227.224 23.18L226.544 24.82C226.157 24.5 225.69 24.2467 225.144 24.06C224.61 23.8733 224.097 23.78 223.604 23.78C222.95 23.78 222.464 23.8933 222.144 24.12C221.837 24.3467 221.684 24.6467 221.684 25.02C221.684 25.6067 222.064 25.9667 222.824 26.1L224.824 26.48C225.69 26.64 226.344 26.9333 226.784 27.36C227.237 27.7867 227.464 28.36 227.464 29.08C227.464 30.0533 227.084 30.82 226.324 31.38C225.564 31.9267 224.55 32.2 223.284 32.2ZM234.289 32.2C233.183 32.2 232.229 31.9933 231.429 31.58C230.629 31.1667 230.009 30.58 229.569 29.82C229.143 29.06 228.929 28.16 228.929 27.12C228.929 26.1067 229.136 25.22 229.549 24.46C229.976 23.7 230.556 23.1067 231.289 22.68C232.036 22.24 232.883 22.02 233.829 22.02C235.216 22.02 236.309 22.46 237.109 23.34C237.923 24.22 238.329 25.42 238.329 26.94V27.68H231.329C231.516 29.4267 232.516 30.3 234.329 30.3C234.876 30.3 235.423 30.22 235.969 30.06C236.516 29.8867 237.016 29.62 237.469 29.26L238.169 30.94C237.703 31.3267 237.116 31.6333 236.409 31.86C235.703 32.0867 234.996 32.2 234.289 32.2ZM233.929 23.72C233.196 23.72 232.603 23.9467 232.149 24.4C231.696 24.8533 231.423 25.4667 231.329 26.24H236.249C236.196 25.4267 235.969 24.8067 235.569 24.38C235.183 23.94 234.636 23.72 233.929 23.72ZM249.46 32.2C248.606 32.2 247.853 31.9933 247.2 31.58C246.56 31.1667 246.06 30.58 245.7 29.82C245.34 29.0467 245.16 28.14 245.16 27.1C245.16 26.0467 245.34 25.1467 245.7 24.4C246.06 23.64 246.56 23.0533 247.2 22.64C247.853 22.2267 248.606 22.02 249.46 22.02C250.153 22.02 250.78 22.1733 251.34 22.48C251.9 22.7867 252.32 23.1933 252.6 23.7V17.9H255.1V32H252.66V30.38C252.393 30.94 251.973 31.3867 251.4 31.72C250.826 32.04 250.18 32.2 249.46 32.2ZM250.16 30.3C250.906 30.3 251.506 30.0333 251.96 29.5C252.413 28.9533 252.64 28.1533 252.64 27.1C252.64 26.0333 252.413 25.24 251.96 24.72C251.506 24.1867 250.906 23.92 250.16 23.92C249.413 23.92 248.813 24.1867 248.36 24.72C247.906 25.24 247.68 26.0333 247.68 27.1C247.68 28.1533 247.906 28.9533 248.36 29.5C248.813 30.0333 249.413 30.3 250.16 30.3ZM262.512 32.2C261.405 32.2 260.452 31.9933 259.652 31.58C258.852 31.1667 258.232 30.58 257.792 29.82C257.365 29.06 257.152 28.16 257.152 27.12C257.152 26.1067 257.359 25.22 257.772 24.46C258.199 23.7 258.779 23.1067 259.512 22.68C260.259 22.24 261.105 22.02 262.052 22.02C263.439 22.02 264.532 22.46 265.332 23.34C266.145 24.22 266.552 25.42 266.552 26.94V27.68H259.552C259.739 29.4267 260.739 30.3 262.552 30.3C263.099 30.3 263.645 30.22 264.192 30.06C264.739 29.8867 265.239 29.62 265.692 29.26L266.392 30.94C265.925 31.3267 265.339 31.6333 264.632 31.86C263.925 32.0867 263.219 32.2 262.512 32.2ZM262.152 23.72C261.419 23.72 260.825 23.9467 260.372 24.4C259.919 24.8533 259.645 25.4667 259.552 26.24H264.472C264.419 25.4267 264.192 24.8067 263.792 24.38C263.405 23.94 262.859 23.72 262.152 23.72ZM268.532 35.6V22.22H270.972V23.78C271.252 23.2467 271.672 22.82 272.232 22.5C272.805 22.18 273.452 22.02 274.172 22.02C275.025 22.02 275.772 22.2267 276.412 22.64C277.065 23.0533 277.572 23.64 277.932 24.4C278.292 25.1467 278.472 26.0467 278.472 27.1C278.472 28.14 278.292 29.0467 277.932 29.82C277.572 30.58 277.072 31.1667 276.432 31.58C275.792 31.9933 275.038 32.2 274.172 32.2C273.478 32.2 272.852 32.0533 272.292 31.76C271.745 31.4533 271.325 31.0467 271.032 30.54V35.6H268.532ZM273.472 30.3C274.218 30.3 274.818 30.0333 275.272 29.5C275.725 28.9533 275.952 28.1533 275.952 27.1C275.952 26.0333 275.725 25.24 275.272 24.72C274.818 24.1867 274.218 23.92 273.472 23.92C272.725 23.92 272.125 24.1867 271.672 24.72C271.218 25.24 270.992 26.0333 270.992 27.1C270.992 28.1533 271.218 28.9533 271.672 29.5C272.125 30.0333 272.725 30.3 273.472 30.3ZM284.984 32.2C283.971 32.2 283.091 31.9933 282.344 31.58C281.597 31.1667 281.017 30.58 280.604 29.82C280.191 29.0467 279.984 28.14 279.984 27.1C279.984 26.06 280.191 25.16 280.604 24.4C281.017 23.64 281.597 23.0533 282.344 22.64C283.091 22.2267 283.971 22.02 284.984 22.02C285.997 22.02 286.877 22.2267 287.624 22.64C288.371 23.0533 288.951 23.64 289.364 24.4C289.777 25.16 289.984 26.06 289.984 27.1C289.984 28.14 289.777 29.0467 289.364 29.82C288.951 30.58 288.371 31.1667 287.624 31.58C286.877 31.9933 285.997 32.2 284.984 32.2ZM284.984 30.3C285.731 30.3 286.331 30.0333 286.784 29.5C287.237 28.9533 287.464 28.1533 287.464 27.1C287.464 26.0333 287.237 25.24 286.784 24.72C286.331 24.1867 285.731 23.92 284.984 23.92C284.237 23.92 283.637 24.1867 283.184 24.72C282.731 25.24 282.504 26.0333 282.504 27.1C282.504 28.1533 282.731 28.9533 283.184 29.5C283.637 30.0333 284.237 30.3 284.984 30.3ZM295.627 32.2C294.801 32.2 294.027 32.1 293.307 31.9C292.587 31.7 291.987 31.4133 291.507 31.04L292.147 29.4C292.641 29.7333 293.194 29.9933 293.807 30.18C294.421 30.3533 295.034 30.44 295.647 30.44C296.287 30.44 296.761 30.3333 297.067 30.12C297.387 29.8933 297.547 29.6 297.547 29.24C297.547 28.68 297.134 28.32 296.307 28.16L294.307 27.78C292.614 27.46 291.767 26.58 291.767 25.14C291.767 24.5 291.941 23.9467 292.287 23.48C292.647 23.0133 293.141 22.6533 293.767 22.4C294.394 22.1467 295.114 22.02 295.927 22.02C296.621 22.02 297.287 22.12 297.927 22.32C298.567 22.5067 299.114 22.7933 299.567 23.18L298.887 24.82C298.501 24.5 298.034 24.2467 297.487 24.06C296.954 23.8733 296.441 23.78 295.947 23.78C295.294 23.78 294.807 23.8933 294.487 24.12C294.181 24.3467 294.027 24.6467 294.027 25.02C294.027 25.6067 294.407 25.9667 295.167 26.1L297.167 26.48C298.034 26.64 298.687 26.9333 299.127 27.36C299.581 27.7867 299.807 28.36 299.807 29.08C299.807 30.0533 299.427 30.82 298.667 31.38C297.907 31.9267 296.894 32.2 295.627 32.2ZM301.653 20.12V17.68H304.453V20.12H301.653ZM301.813 32V22.22H304.313V32H301.813ZM311.391 32.2C308.804 32.2 307.511 30.92 307.511 28.36V24.1H305.631V22.22H307.511V19.3H310.011V22.22H312.971V24.1H310.011V28.22C310.011 28.86 310.151 29.34 310.431 29.66C310.711 29.98 311.164 30.14 311.791 30.14C311.977 30.14 312.171 30.12 312.371 30.08C312.571 30.0267 312.777 29.9733 312.991 29.92L313.371 31.76C313.131 31.8933 312.824 32 312.451 32.08C312.091 32.16 311.737 32.2 311.391 32.2ZM324.497 32.2C323.47 32.2 322.577 31.9933 321.817 31.58C321.057 31.1533 320.47 30.5533 320.057 29.78C319.644 29.0067 319.437 28.1 319.437 27.06C319.437 26.02 319.644 25.1267 320.057 24.38C320.47 23.62 321.057 23.04 321.817 22.64C322.577 22.2267 323.47 22.02 324.497 22.02C325.124 22.02 325.744 22.12 326.357 22.32C326.97 22.52 327.477 22.8 327.877 23.16L327.137 24.9C326.79 24.5933 326.397 24.36 325.957 24.2C325.53 24.04 325.117 23.96 324.717 23.96C323.85 23.96 323.177 24.2333 322.697 24.78C322.23 25.3133 321.997 26.08 321.997 27.08C321.997 28.0667 322.23 28.8467 322.697 29.42C323.177 29.98 323.85 30.26 324.717 30.26C325.104 30.26 325.517 30.18 325.957 30.02C326.397 29.86 326.79 29.62 327.137 29.3L327.877 31.06C327.477 31.4067 326.964 31.6867 326.337 31.9C325.724 32.1 325.11 32.2 324.497 32.2ZM332.951 32.2C330.551 32.2 329.351 30.8533 329.351 28.16V22.22H331.851V28.2C331.851 28.8933 331.991 29.4067 332.271 29.74C332.551 30.0733 332.997 30.24 333.611 30.24C334.277 30.24 334.824 30.0133 335.251 29.56C335.677 29.0933 335.891 28.48 335.891 27.72V22.22H338.391V32H335.951V30.54C335.297 31.6467 334.297 32.2 332.951 32.2ZM340.993 32V22.22H343.433V23.94C343.913 22.78 344.939 22.14 346.513 22.02L347.273 21.96L347.433 24.08L345.993 24.22C344.353 24.38 343.533 25.22 343.533 26.74V32H340.993ZM348.825 32V22.22H351.265V23.94C351.745 22.78 352.771 22.14 354.345 22.02L355.105 21.96L355.265 24.08L353.825 24.22C352.185 24.38 351.365 25.22 351.365 26.74V32H348.825ZM361.32 32.2C360.214 32.2 359.26 31.9933 358.46 31.58C357.66 31.1667 357.04 30.58 356.6 29.82C356.174 29.06 355.96 28.16 355.96 27.12C355.96 26.1067 356.167 25.22 356.58 24.46C357.007 23.7 357.587 23.1067 358.32 22.68C359.067 22.24 359.914 22.02 360.86 22.02C362.247 22.02 363.34 22.46 364.14 23.34C364.954 24.22 365.36 25.42 365.36 26.94V27.68H358.36C358.547 29.4267 359.547 30.3 361.36 30.3C361.907 30.3 362.454 30.22 363 30.06C363.547 29.8867 364.047 29.62 364.5 29.26L365.2 30.94C364.734 31.3267 364.147 31.6333 363.44 31.86C362.734 32.0867 362.027 32.2 361.32 32.2ZM360.96 23.72C360.227 23.72 359.634 23.9467 359.18 24.4C358.727 24.8533 358.454 25.4667 358.36 26.24H363.28C363.227 25.4267 363 24.8067 362.6 24.38C362.214 23.94 361.667 23.72 360.96 23.72ZM367.34 32V22.22H369.78V23.74C370.114 23.18 370.56 22.7533 371.12 22.46C371.694 22.1667 372.334 22.02 373.04 22.02C375.347 22.02 376.5 23.36 376.5 26.04V32H374V26.16C374 25.4 373.854 24.8467 373.56 24.5C373.28 24.1533 372.84 23.98 372.24 23.98C371.507 23.98 370.92 24.2133 370.48 24.68C370.054 25.1333 369.84 25.74 369.84 26.5V32H367.34ZM383.56 32.2C382.533 32.2 381.64 31.9933 380.88 31.58C380.12 31.1533 379.533 30.5533 379.12 29.78C378.706 29.0067 378.5 28.1 378.5 27.06C378.5 26.02 378.706 25.1267 379.12 24.38C379.533 23.62 380.12 23.04 380.88 22.64C381.64 22.2267 382.533 22.02 383.56 22.02C384.186 22.02 384.806 22.12 385.42 22.32C386.033 22.52 386.54 22.8 386.94 23.16L386.2 24.9C385.853 24.5933 385.46 24.36 385.02 24.2C384.593 24.04 384.18 23.96 383.78 23.96C382.913 23.96 382.24 24.2333 381.76 24.78C381.293 25.3133 381.06 26.08 381.06 27.08C381.06 28.0667 381.293 28.8467 381.76 29.42C382.24 29.98 382.913 30.26 383.78 30.26C384.166 30.26 384.58 30.18 385.02 30.02C385.46 29.86 385.853 29.62 386.2 29.3L386.94 31.06C386.54 31.4067 386.026 31.6867 385.4 31.9C384.786 32.1 384.173 32.2 383.56 32.2ZM389.509 35.6L391.309 31.6L387.249 22.22H389.909L392.649 29.06L395.449 22.22H397.969L392.089 35.6H389.509Z" fill="white"/>
<rect width="300" height="51" transform="translate(134.083 111.5)" fill="#04D189"/>
<path d="M207.983 143.7C206.877 143.7 205.85 143.56 204.903 143.28C203.957 142.987 203.157 142.593 202.503 142.1L203.283 140.08C203.937 140.547 204.65 140.907 205.423 141.16C206.21 141.413 207.063 141.54 207.983 141.54C209.037 141.54 209.803 141.367 210.283 141.02C210.763 140.66 211.003 140.2 211.003 139.64C211.003 139.173 210.83 138.807 210.483 138.54C210.15 138.273 209.57 138.053 208.743 137.88L206.543 137.42C204.037 136.887 202.783 135.6 202.783 133.56C202.783 132.68 203.017 131.913 203.483 131.26C203.95 130.607 204.597 130.1 205.423 129.74C206.25 129.38 207.203 129.2 208.283 129.2C209.243 129.2 210.143 129.347 210.983 129.64C211.823 129.92 212.523 130.32 213.083 130.84L212.303 132.76C211.197 131.827 209.85 131.36 208.263 131.36C207.343 131.36 206.623 131.553 206.103 131.94C205.583 132.327 205.323 132.833 205.323 133.46C205.323 133.94 205.483 134.327 205.803 134.62C206.123 134.9 206.67 135.12 207.443 135.28L209.623 135.74C210.943 136.02 211.923 136.46 212.563 137.06C213.217 137.66 213.543 138.46 213.543 139.46C213.543 140.3 213.317 141.04 212.863 141.68C212.41 142.32 211.763 142.82 210.923 143.18C210.097 143.527 209.117 143.7 207.983 143.7ZM220.32 143.7C219.214 143.7 218.26 143.493 217.46 143.08C216.66 142.667 216.04 142.08 215.6 141.32C215.174 140.56 214.96 139.66 214.96 138.62C214.96 137.607 215.167 136.72 215.58 135.96C216.007 135.2 216.587 134.607 217.32 134.18C218.067 133.74 218.914 133.52 219.86 133.52C221.247 133.52 222.34 133.96 223.14 134.84C223.954 135.72 224.36 136.92 224.36 138.44V139.18H217.36C217.547 140.927 218.547 141.8 220.36 141.8C220.907 141.8 221.454 141.72 222 141.56C222.547 141.387 223.047 141.12 223.5 140.76L224.2 142.44C223.734 142.827 223.147 143.133 222.44 143.36C221.734 143.587 221.027 143.7 220.32 143.7ZM219.96 135.22C219.227 135.22 218.634 135.447 218.18 135.9C217.727 136.353 217.454 136.967 217.36 137.74H222.28C222.227 136.927 222 136.307 221.6 135.88C221.214 135.44 220.667 135.22 219.96 135.22ZM229.74 143.7C228.58 143.7 227.72 143.387 227.16 142.76C226.614 142.12 226.34 141.187 226.34 139.96V129.4H228.84V139.84C228.84 141.04 229.347 141.64 230.36 141.64C230.507 141.64 230.654 141.633 230.8 141.62C230.947 141.607 231.087 141.58 231.22 141.54L231.18 143.52C230.7 143.64 230.22 143.7 229.74 143.7ZM237.449 143.7C236.343 143.7 235.389 143.493 234.589 143.08C233.789 142.667 233.169 142.08 232.729 141.32C232.303 140.56 232.089 139.66 232.089 138.62C232.089 137.607 232.296 136.72 232.709 135.96C233.136 135.2 233.716 134.607 234.449 134.18C235.196 133.74 236.043 133.52 236.989 133.52C238.376 133.52 239.469 133.96 240.269 134.84C241.083 135.72 241.489 136.92 241.489 138.44V139.18H234.489C234.676 140.927 235.676 141.8 237.489 141.8C238.036 141.8 238.583 141.72 239.129 141.56C239.676 141.387 240.176 141.12 240.629 140.76L241.329 142.44C240.863 142.827 240.276 143.133 239.569 143.36C238.863 143.587 238.156 143.7 237.449 143.7ZM237.089 135.22C236.356 135.22 235.763 135.447 235.309 135.9C234.856 136.353 234.583 136.967 234.489 137.74H239.409C239.356 136.927 239.129 136.307 238.729 135.88C238.343 135.44 237.796 135.22 237.089 135.22ZM247.989 143.7C246.963 143.7 246.069 143.493 245.309 143.08C244.549 142.653 243.963 142.053 243.549 141.28C243.136 140.507 242.929 139.6 242.929 138.56C242.929 137.52 243.136 136.627 243.549 135.88C243.963 135.12 244.549 134.54 245.309 134.14C246.069 133.727 246.963 133.52 247.989 133.52C248.616 133.52 249.236 133.62 249.849 133.82C250.463 134.02 250.969 134.3 251.369 134.66L250.629 136.4C250.283 136.093 249.889 135.86 249.449 135.7C249.023 135.54 248.609 135.46 248.209 135.46C247.343 135.46 246.669 135.733 246.189 136.28C245.723 136.813 245.489 137.58 245.489 138.58C245.489 139.567 245.723 140.347 246.189 140.92C246.669 141.48 247.343 141.76 248.209 141.76C248.596 141.76 249.009 141.68 249.449 141.52C249.889 141.36 250.283 141.12 250.629 140.8L251.369 142.56C250.969 142.907 250.456 143.187 249.829 143.4C249.216 143.6 248.603 143.7 247.989 143.7ZM257.422 143.7C254.835 143.7 253.542 142.42 253.542 139.86V135.6H251.662V133.72H253.542V130.8H256.042V133.72H259.002V135.6H256.042V139.72C256.042 140.36 256.182 140.84 256.462 141.16C256.742 141.48 257.195 141.64 257.822 141.64C258.009 141.64 258.202 141.62 258.402 141.58C258.602 141.527 258.809 141.473 259.022 141.42L259.402 143.26C259.162 143.393 258.855 143.5 258.482 143.58C258.122 143.66 257.769 143.7 257.422 143.7ZM265.848 131.62V129.18H268.648V131.62H265.848ZM266.008 143.5V133.72H268.508V143.5H266.008ZM271.106 143.5V133.72H273.546V135.24C273.879 134.68 274.326 134.253 274.886 133.96C275.459 133.667 276.099 133.52 276.806 133.52C279.113 133.52 280.266 134.86 280.266 137.54V143.5H277.766V137.66C277.766 136.9 277.619 136.347 277.326 136C277.046 135.653 276.606 135.48 276.006 135.48C275.273 135.48 274.686 135.713 274.246 136.18C273.819 136.633 273.606 137.24 273.606 138V143.5H271.106ZM286.385 143.7C285.558 143.7 284.785 143.6 284.065 143.4C283.345 143.2 282.745 142.913 282.265 142.54L282.905 140.9C283.398 141.233 283.952 141.493 284.565 141.68C285.178 141.853 285.792 141.94 286.405 141.94C287.045 141.94 287.518 141.833 287.825 141.62C288.145 141.393 288.305 141.1 288.305 140.74C288.305 140.18 287.892 139.82 287.065 139.66L285.065 139.28C283.372 138.96 282.525 138.08 282.525 136.64C282.525 136 282.698 135.447 283.045 134.98C283.405 134.513 283.898 134.153 284.525 133.9C285.152 133.647 285.872 133.52 286.685 133.52C287.378 133.52 288.045 133.62 288.685 133.82C289.325 134.007 289.872 134.293 290.325 134.68L289.645 136.32C289.258 136 288.792 135.747 288.245 135.56C287.712 135.373 287.198 135.28 286.705 135.28C286.052 135.28 285.565 135.393 285.245 135.62C284.938 135.847 284.785 136.147 284.785 136.52C284.785 137.107 285.165 137.467 285.925 137.6L287.925 137.98C288.792 138.14 289.445 138.433 289.885 138.86C290.338 139.287 290.565 139.86 290.565 140.58C290.565 141.553 290.185 142.32 289.425 142.88C288.665 143.427 287.652 143.7 286.385 143.7ZM296.953 143.7C294.366 143.7 293.073 142.42 293.073 139.86V135.6H291.193V133.72H293.073V130.8H295.573V133.72H298.533V135.6H295.573V139.72C295.573 140.36 295.713 140.84 295.993 141.16C296.273 141.48 296.726 141.64 297.353 141.64C297.54 141.64 297.733 141.62 297.933 141.58C298.133 141.527 298.34 141.473 298.553 141.42L298.933 143.26C298.693 143.393 298.386 143.5 298.013 143.58C297.653 143.66 297.3 143.7 296.953 143.7ZM300.149 143.5V133.72H302.589V135.44C303.069 134.28 304.096 133.64 305.669 133.52L306.429 133.46L306.589 135.58L305.149 135.72C303.509 135.88 302.689 136.72 302.689 138.24V143.5H300.149ZM311.521 143.7C309.121 143.7 307.921 142.353 307.921 139.66V133.72H310.421V139.7C310.421 140.393 310.561 140.907 310.841 141.24C311.121 141.573 311.568 141.74 312.181 141.74C312.848 141.74 313.394 141.513 313.821 141.06C314.248 140.593 314.461 139.98 314.461 139.22V133.72H316.961V143.5H314.521V142.04C313.868 143.147 312.868 143.7 311.521 143.7ZM319.603 143.5V133.72H322.043V135.22C322.336 134.687 322.743 134.273 323.263 133.98C323.783 133.673 324.383 133.52 325.063 133.52C326.53 133.52 327.49 134.16 327.943 135.44C328.25 134.84 328.69 134.373 329.263 134.04C329.836 133.693 330.49 133.52 331.223 133.52C333.423 133.52 334.523 134.86 334.523 137.54V143.5H332.023V137.64C332.023 136.893 331.896 136.347 331.643 136C331.403 135.653 330.99 135.48 330.403 135.48C329.75 135.48 329.236 135.713 328.863 136.18C328.49 136.633 328.303 137.267 328.303 138.08V143.5H325.803V137.64C325.803 136.893 325.676 136.347 325.423 136C325.183 135.653 324.776 135.48 324.203 135.48C323.55 135.48 323.036 135.713 322.663 136.18C322.29 136.633 322.103 137.267 322.103 138.08V143.5H319.603ZM341.922 143.7C340.815 143.7 339.862 143.493 339.062 143.08C338.262 142.667 337.642 142.08 337.202 141.32C336.775 140.56 336.562 139.66 336.562 138.62C336.562 137.607 336.769 136.72 337.182 135.96C337.609 135.2 338.189 134.607 338.922 134.18C339.669 133.74 340.515 133.52 341.462 133.52C342.849 133.52 343.942 133.96 344.742 134.84C345.555 135.72 345.962 136.92 345.962 138.44V139.18H338.962C339.149 140.927 340.149 141.8 341.962 141.8C342.509 141.8 343.055 141.72 343.602 141.56C344.149 141.387 344.649 141.12 345.102 140.76L345.802 142.44C345.335 142.827 344.749 143.133 344.042 143.36C343.335 143.587 342.629 143.7 341.922 143.7ZM341.562 135.22C340.829 135.22 340.235 135.447 339.782 135.9C339.329 136.353 339.055 136.967 338.962 137.74H343.882C343.829 136.927 343.602 136.307 343.202 135.88C342.815 135.44 342.269 135.22 341.562 135.22ZM347.942 143.5V133.72H350.382V135.24C350.715 134.68 351.162 134.253 351.722 133.96C352.295 133.667 352.935 133.52 353.642 133.52C355.949 133.52 357.102 134.86 357.102 137.54V143.5H354.602V137.66C354.602 136.9 354.455 136.347 354.162 136C353.882 135.653 353.442 135.48 352.842 135.48C352.109 135.48 351.522 135.713 351.082 136.18C350.655 136.633 350.442 137.24 350.442 138V143.5H347.942ZM364.121 143.7C361.534 143.7 360.241 142.42 360.241 139.86V135.6H358.361V133.72H360.241V130.8H362.741V133.72H365.701V135.6H362.741V139.72C362.741 140.36 362.881 140.84 363.161 141.16C363.441 141.48 363.894 141.64 364.521 141.64C364.708 141.64 364.901 141.62 365.101 141.58C365.301 141.527 365.508 141.473 365.721 141.42L366.101 143.26C365.861 143.393 365.554 143.5 365.181 143.58C364.821 143.66 364.468 143.7 364.121 143.7Z" fill="white"/>
<rect width="300" height="51" transform="translate(134.083 223)" fill="#04D189"/>
<path d="M196.123 255V240.9H205.503V242.94H198.583V246.82H205.063V248.86H198.583V252.96H205.503V255H196.123ZM207.817 255V245.22H210.257V246.74C210.59 246.18 211.037 245.753 211.597 245.46C212.17 245.167 212.81 245.02 213.517 245.02C215.824 245.02 216.977 246.36 216.977 249.04V255H214.477V249.16C214.477 248.4 214.33 247.847 214.037 247.5C213.757 247.153 213.317 246.98 212.717 246.98C211.984 246.98 211.397 247.213 210.957 247.68C210.53 248.133 210.317 248.74 210.317 249.5V255H207.817ZM223.996 255.2C221.409 255.2 220.116 253.92 220.116 251.36V247.1H218.236V245.22H220.116V242.3H222.616V245.22H225.576V247.1H222.616V251.22C222.616 251.86 222.756 252.34 223.036 252.66C223.316 252.98 223.769 253.14 224.396 253.14C224.583 253.14 224.776 253.12 224.976 253.08C225.176 253.027 225.383 252.973 225.596 252.92L225.976 254.76C225.736 254.893 225.429 255 225.056 255.08C224.696 255.16 224.343 255.2 223.996 255.2ZM231.914 255.2C230.808 255.2 229.854 254.993 229.054 254.58C228.254 254.167 227.634 253.58 227.194 252.82C226.768 252.06 226.554 251.16 226.554 250.12C226.554 249.107 226.761 248.22 227.174 247.46C227.601 246.7 228.181 246.107 228.914 245.68C229.661 245.24 230.508 245.02 231.454 245.02C232.841 245.02 233.934 245.46 234.734 246.34C235.548 247.22 235.954 248.42 235.954 249.94V250.68H228.954C229.141 252.427 230.141 253.3 231.954 253.3C232.501 253.3 233.048 253.22 233.594 253.06C234.141 252.887 234.641 252.62 235.094 252.26L235.794 253.94C235.328 254.327 234.741 254.633 234.034 254.86C233.328 255.087 232.621 255.2 231.914 255.2ZM231.554 246.72C230.821 246.72 230.228 246.947 229.774 247.4C229.321 247.853 229.048 248.467 228.954 249.24H233.874C233.821 248.427 233.594 247.807 233.194 247.38C232.808 246.94 232.261 246.72 231.554 246.72ZM237.934 255V245.22H240.374V246.94C240.854 245.78 241.881 245.14 243.454 245.02L244.214 244.96L244.374 247.08L242.934 247.22C241.294 247.38 240.474 248.22 240.474 249.74V255H237.934ZM254.037 255L249.797 245.22H252.457L255.177 252.06L257.997 245.22H260.497L256.197 255H254.037ZM265.968 255.2C264.955 255.2 264.075 254.993 263.328 254.58C262.582 254.167 262.002 253.58 261.588 252.82C261.175 252.047 260.968 251.14 260.968 250.1C260.968 249.06 261.175 248.16 261.588 247.4C262.002 246.64 262.582 246.053 263.328 245.64C264.075 245.227 264.955 245.02 265.968 245.02C266.982 245.02 267.862 245.227 268.608 245.64C269.355 246.053 269.935 246.64 270.348 247.4C270.762 248.16 270.968 249.06 270.968 250.1C270.968 251.14 270.762 252.047 270.348 252.82C269.935 253.58 269.355 254.167 268.608 254.58C267.862 254.993 266.982 255.2 265.968 255.2ZM265.968 253.3C266.715 253.3 267.315 253.033 267.768 252.5C268.222 251.953 268.448 251.153 268.448 250.1C268.448 249.033 268.222 248.24 267.768 247.72C267.315 247.187 266.715 246.92 265.968 246.92C265.222 246.92 264.622 247.187 264.168 247.72C263.715 248.24 263.488 249.033 263.488 250.1C263.488 251.153 263.715 251.953 264.168 252.5C264.622 253.033 265.222 253.3 265.968 253.3ZM276.432 255.2C275.272 255.2 274.412 254.887 273.852 254.26C273.305 253.62 273.032 252.687 273.032 251.46V240.9H275.532V251.34C275.532 252.54 276.038 253.14 277.052 253.14C277.198 253.14 277.345 253.133 277.492 253.12C277.638 253.107 277.778 253.08 277.912 253.04L277.872 255.02C277.392 255.14 276.912 255.2 276.432 255.2ZM282.958 255.2C280.558 255.2 279.358 253.853 279.358 251.16V245.22H281.858V251.2C281.858 251.893 281.998 252.407 282.278 252.74C282.558 253.073 283.005 253.24 283.618 253.24C284.285 253.24 284.832 253.013 285.258 252.56C285.685 252.093 285.898 251.48 285.898 250.72V245.22H288.398V255H285.958V253.54C285.305 254.647 284.305 255.2 282.958 255.2ZM291.04 255V245.22H293.48V246.72C293.774 246.187 294.18 245.773 294.7 245.48C295.22 245.173 295.82 245.02 296.5 245.02C297.967 245.02 298.927 245.66 299.38 246.94C299.687 246.34 300.127 245.873 300.7 245.54C301.274 245.193 301.927 245.02 302.66 245.02C304.86 245.02 305.96 246.36 305.96 249.04V255H303.46V249.14C303.46 248.393 303.334 247.847 303.08 247.5C302.84 247.153 302.427 246.98 301.84 246.98C301.187 246.98 300.674 247.213 300.3 247.68C299.927 248.133 299.74 248.767 299.74 249.58V255H297.24V249.14C297.24 248.393 297.114 247.847 296.86 247.5C296.62 247.153 296.214 246.98 295.64 246.98C294.987 246.98 294.474 247.213 294.1 247.68C293.727 248.133 293.54 248.767 293.54 249.58V255H291.04ZM313.36 255.2C312.253 255.2 311.3 254.993 310.5 254.58C309.7 254.167 309.08 253.58 308.64 252.82C308.213 252.06 308 251.16 308 250.12C308 249.107 308.206 248.22 308.62 247.46C309.046 246.7 309.626 246.107 310.36 245.68C311.106 245.24 311.953 245.02 312.9 245.02C314.286 245.02 315.38 245.46 316.18 246.34C316.993 247.22 317.4 248.42 317.4 249.94V250.68H310.4C310.586 252.427 311.586 253.3 313.4 253.3C313.946 253.3 314.493 253.22 315.04 253.06C315.586 252.887 316.086 252.62 316.54 252.26L317.24 253.94C316.773 254.327 316.186 254.633 315.48 254.86C314.773 255.087 314.066 255.2 313.36 255.2ZM313 246.72C312.266 246.72 311.673 246.947 311.22 247.4C310.766 247.853 310.493 248.467 310.4 249.24H315.32C315.266 248.427 315.04 247.807 314.64 247.38C314.253 246.94 313.706 246.72 313 246.72ZM328.23 258.9C327.243 257.433 326.537 255.94 326.11 254.42C325.683 252.887 325.47 251.327 325.47 249.74C325.47 248.14 325.683 246.58 326.11 245.06C326.537 243.54 327.243 242.047 328.23 240.58L329.93 241.26C329.303 242.793 328.85 244.227 328.57 245.56C328.29 246.88 328.15 248.273 328.15 249.74C328.15 251.193 328.29 252.587 328.57 253.92C328.85 255.253 329.303 256.687 329.93 258.22L328.23 258.9ZM335.338 255.2C334.178 255.2 333.318 254.887 332.758 254.26C332.211 253.62 331.938 252.687 331.938 251.46V240.9H334.438V251.34C334.438 252.54 334.945 253.14 335.958 253.14C336.105 253.14 336.251 253.133 336.398 253.12C336.545 253.107 336.685 253.08 336.818 253.04L336.778 255.02C336.298 255.14 335.818 255.2 335.338 255.2ZM342.687 255.2C341.674 255.2 340.794 254.993 340.047 254.58C339.3 254.167 338.72 253.58 338.307 252.82C337.894 252.047 337.687 251.14 337.687 250.1C337.687 249.06 337.894 248.16 338.307 247.4C338.72 246.64 339.3 246.053 340.047 245.64C340.794 245.227 341.674 245.02 342.687 245.02C343.7 245.02 344.58 245.227 345.327 245.64C346.074 246.053 346.654 246.64 347.067 247.4C347.48 248.16 347.687 249.06 347.687 250.1C347.687 251.14 347.48 252.047 347.067 252.82C346.654 253.58 346.074 254.167 345.327 254.58C344.58 254.993 343.7 255.2 342.687 255.2ZM342.687 253.3C343.434 253.3 344.034 253.033 344.487 252.5C344.94 251.953 345.167 251.153 345.167 250.1C345.167 249.033 344.94 248.24 344.487 247.72C344.034 247.187 343.434 246.92 342.687 246.92C341.94 246.92 341.34 247.187 340.887 247.72C340.434 248.24 340.207 249.033 340.207 250.1C340.207 251.153 340.434 251.953 340.887 252.5C341.34 253.033 341.94 253.3 342.687 253.3ZM354.133 255.2C351.546 255.2 350.253 253.92 350.253 251.36V247.1H348.373V245.22H350.253V242.3H352.753V245.22H355.713V247.1H352.753V251.22C352.753 251.86 352.893 252.34 353.173 252.66C353.453 252.98 353.906 253.14 354.533 253.14C354.719 253.14 354.913 253.12 355.113 253.08C355.313 253.027 355.519 252.973 355.733 252.92L356.113 254.76C355.873 254.893 355.566 255 355.193 255.08C354.833 255.16 354.479 255.2 354.133 255.2ZM360.909 255.2C360.082 255.2 359.309 255.1 358.589 254.9C357.869 254.7 357.269 254.413 356.789 254.04L357.429 252.4C357.922 252.733 358.475 252.993 359.089 253.18C359.702 253.353 360.315 253.44 360.929 253.44C361.569 253.44 362.042 253.333 362.349 253.12C362.669 252.893 362.829 252.6 362.829 252.24C362.829 251.68 362.415 251.32 361.589 251.16L359.589 250.78C357.895 250.46 357.049 249.58 357.049 248.14C357.049 247.5 357.222 246.947 357.569 246.48C357.929 246.013 358.422 245.653 359.049 245.4C359.675 245.147 360.395 245.02 361.209 245.02C361.902 245.02 362.569 245.12 363.209 245.32C363.849 245.507 364.395 245.793 364.849 246.18L364.169 247.82C363.782 247.5 363.315 247.247 362.769 247.06C362.235 246.873 361.722 246.78 361.229 246.78C360.575 246.78 360.089 246.893 359.769 247.12C359.462 247.347 359.309 247.647 359.309 248.02C359.309 248.607 359.689 248.967 360.449 249.1L362.449 249.48C363.315 249.64 363.969 249.933 364.409 250.36C364.862 250.787 365.089 251.36 365.089 252.08C365.089 253.053 364.709 253.82 363.949 254.38C363.189 254.927 362.175 255.2 360.909 255.2ZM368.194 258.9L366.494 258.22C367.121 256.673 367.574 255.233 367.854 253.9C368.134 252.567 368.274 251.18 368.274 249.74C368.274 248.3 368.134 246.913 367.854 245.58C367.574 244.247 367.121 242.807 366.494 241.26L368.194 240.58C369.181 242.047 369.888 243.547 370.314 245.08C370.741 246.6 370.954 248.153 370.954 249.74C370.954 251.327 370.741 252.887 370.314 254.42C369.888 255.94 369.181 257.433 368.194 258.9Z" fill="white"/>
<path d="M281.646 222.354C281.842 222.549 282.158 222.549 282.354 222.354L285.536 219.172C285.731 218.976 285.731 218.66 285.536 218.464C285.34 218.269 285.024 218.269 284.828 218.464L282 221.293L279.172 218.464C278.976 218.269 278.66 218.269 278.464 218.464C278.269 218.66 278.269 218.976 278.464 219.172L281.646 222.354ZM281.5 162L281.5 222L282.5 222L282.5 162L281.5 162Z" fill="#212B36"/>
<path d="M281.646 110.354C281.842 110.549 282.158 110.549 282.354 110.354L285.536 107.172C285.731 106.976 285.731 106.66 285.536 106.464C285.34 106.269 285.024 106.269 284.828 106.464L282 109.293L279.172 106.464C278.976 106.269 278.66 106.269 278.464 106.464C278.269 106.66 278.269 106.976 278.464 107.172L281.646 110.354ZM281.5 51L281.5 110L282.5 110L282.5 51L281.5 51Z" fill="#212B36"/>
<g opacity="0.045">
<path d="M216.822 352.075C290.144 352.075 349.583 283.902 349.583 199.807C349.583 115.712 214.328 0 141.005 0C67.6834 0 0.416992 210.279 0.416992 294.374C0.416992 378.468 143.499 352.075 216.822 352.075Z" fill="#04D189" fill-opacity="0.6"/>
</g>
<g opacity="0.241">
<path d="M215.338 237.584C246.123 211.317 252.51 161.495 229.605 126.305C206.7 91.114 118.395 91.1479 87.6102 117.416C56.8255 143.684 85.8578 255.776 108.764 290.966C131.669 326.157 184.554 263.852 215.338 237.584Z" fill="#04D189" fill-opacity="0.3"/>
</g>
</g>
<defs>
<clipPath id="clip0_153:970">
<rect width="566.166" height="356" fill="white" transform="translate(0.416992)"/>
</clipPath>
</defs>
</svg>
